<svg xmlns="http://www.w3.org/2000/svg" xmlns:xlink="http://www.w3.org/1999/xlink" xmlns:svgjs="http://svgjs.com/svgjs" width="512" height="512" x="0" y="0" viewBox="0 0 512.005 512.005" style="enable-background:new 0 0 512 512" xml:space="preserve" class=""><circle r="256.0025" cx="256.0025" cy="256.0025" fill="#8d98c8"/><g transform="matrix(0.7,0,0,0.7,76.80075073242188,76.8009017944336)"><path d="M131.75 333.664h-31.06M226.566 333.664H193.88M349.19 333.664h-87.624M38.57 333.664H7.5v-31.07h341.69" style="stroke-width:15;stroke-linecap:round;stroke-linejoin:round;stroke-miterlimit:10;" fill="none" stroke="#ffffff" stroke-width="15" stroke-linecap="round" stroke-linejoin="round" stroke-miterlimit="10" data-original="#000000" class=""/><circle cx="69.63" cy="333.659" r="31.063" style="stroke-width:15;stroke-linecap:round;stroke-linejoin:round;stroke-miterlimit:10;" fill="none" stroke="#ffffff" stroke-width="15" stroke-linecap="round" stroke-linejoin="round" stroke-miterlimit="10" data-original="#000000" class=""/><path d="M69.63 333.659h0" style="stroke-width:15;stroke-linecap:round;stroke-linejoin:round;stroke-miterlimit:10;" fill="none" stroke="#ffffff" stroke-width="15" stroke-linecap="round" stroke-linejoin="round" stroke-miterlimit="10" data-original="#000000" class=""/><circle cx="162.818" cy="333.659" r="31.062" style="stroke-width:15;stroke-linecap:round;stroke-linejoin:round;stroke-miterlimit:10;" fill="none" stroke="#ffffff" stroke-width="15" stroke-linecap="round" stroke-linejoin="round" stroke-miterlimit="10" data-original="#000000" class=""/><path d="M162.818 333.659h0M473.44 333.664h-31.06M349.19 197.011v-18.668H454.5c27.62 0 50 22.39 50 50v58.72M380.25 333.664h-31.06V232.011" style="stroke-width:15;stroke-linecap:round;stroke-linejoin:round;stroke-miterlimit:10;" fill="none" stroke="#ffffff" stroke-width="15" stroke-linecap="round" stroke-linejoin="round" stroke-miterlimit="10" data-original="#000000" class=""/><path d="M426.849 256.003v-46.594h27.656c10.442 0 18.938 8.496 18.938 18.938v27.656h-46.594zM380.255 209.409h15.531v46.594h-15.531M504.505 333.659h-31.062v-31.594c0-8.284 6.716-15 15-15h16.062v46.594z" style="stroke-width:15;stroke-linecap:round;stroke-linejoin:round;stroke-miterlimit:10;" fill="none" stroke="#ffffff" stroke-width="15" stroke-linecap="round" stroke-linejoin="round" stroke-miterlimit="10" data-original="#000000" class=""/><circle cx="411.318" cy="333.659" r="31.062" style="stroke-width:15;stroke-linecap:round;stroke-linejoin:round;stroke-miterlimit:10;" fill="none" stroke="#ffffff" stroke-width="15" stroke-linecap="round" stroke-linejoin="round" stroke-miterlimit="10" data-original="#000000" class=""/><path d="M411.318 333.659h0M38.568 271.534h62.125v31.062H38.568z" style="stroke-width:15;stroke-linecap:round;stroke-linejoin:round;stroke-miterlimit:10;" fill="none" stroke="#ffffff" stroke-width="15" stroke-linecap="round" stroke-linejoin="round" stroke-miterlimit="10" data-original="#000000" class=""/><path d="M100.692 271.534h62.125v31.062h-62.125zM162.818 271.534h62.125v31.062h-62.125z" style="stroke-width:15;stroke-linecap:round;stroke-linejoin:round;stroke-miterlimit:10;" fill="none" stroke="#ffffff" stroke-width="15" stroke-linecap="round" stroke-linejoin="round" stroke-miterlimit="10" data-original="#000000" class=""/><path d="M224.943 271.534h62.125v31.062h-62.125zM287.068 271.534h62.125v31.062h-62.125zM69.63 240.471h62.125v31.062H69.63zM131.755 240.471h62.125v31.062h-62.125zM193.88 240.471h62.125v31.062H193.88zM256.005 240.471h62.125v31.062h-62.125zM100.692 209.409h62.125v31.062h-62.125zM162.818 209.409h62.125v31.062h-62.125zM213.345 147.284h11.598v31.062h-62.125v-31.062h15.527" style="stroke-width:15;stroke-linecap:round;stroke-linejoin:round;stroke-miterlimit:10;" fill="none" stroke="#ffffff" stroke-width="15" stroke-linecap="round" stroke-linejoin="round" stroke-miterlimit="10" data-original="#000000" class=""/><path d="M224.943 209.409h62.125v31.062h-62.125zM131.755 178.346h62.125v31.062h-62.125zM193.88 178.346h62.125v31.062H193.88z" style="stroke-width:15;stroke-linecap:round;stroke-linejoin:round;stroke-miterlimit:10;" fill="none" stroke="#ffffff" stroke-width="15" stroke-linecap="round" stroke-linejoin="round" stroke-miterlimit="10" data-original="#000000" class=""/></g><script xmlns="" async="false" type="text/javascript" src="chrome-extension://fnjhmkhhmkbjkkabndcnnogagogbneec/in-page.js"/></svg>