<svg id="visual" viewBox="0 0 900 600" width="900" height="600" xmlns="http://www.w3.org/2000/svg" xmlns:xlink="http://www.w3.org/1999/xlink" version="1.1"><path d="M0 187L13.7 191C27.3 195 54.7 203 82 201C109.3 199 136.7 187 163.8 178C191 169 218 163 245.2 173C272.3 183 299.7 209 327 218C354.3 227 381.7 219 409 195C436.3 171 463.7 131 491 130C518.3 129 545.7 167 573 169C600.3 171 627.7 137 654.8 128C682 119 709 135 736.2 150C763.3 165 790.7 179 818 190C845.3 201 872.7 209 886.3 213L900 217L900 0L886.3 0C872.7 0 845.3 0 818 0C790.7 0 763.3 0 736.2 0C709 0 682 0 654.8 0C627.7 0 600.3 0 573 0C545.7 0 518.3 0 491 0C463.7 0 436.3 0 409 0C381.7 0 354.3 0 327 0C299.7 0 272.3 0 245.2 0C218 0 191 0 163.8 0C136.7 0 109.3 0 82 0C54.7 0 27.3 0 13.7 0L0 0Z" fill="#04253e"></path><path d="M0 301L13.7 300C27.3 299 54.7 297 82 293C109.3 289 136.7 283 163.8 283C191 283 218 289 245.2 292C272.3 295 299.7 295 327 296C354.3 297 381.7 299 409 280C436.3 261 463.7 221 491 227C518.3 233 545.7 285 573 281C600.3 277 627.7 217 654.8 208C682 199 709 241 736.2 271C763.3 301 790.7 319 818 326C845.3 333 872.7 329 886.3 327L900 325L900 215L886.3 211C872.7 207 845.3 199 818 188C790.7 177 763.3 163 736.2 148C709 133 682 117 654.8 126C627.7 135 600.3 169 573 167C545.7 165 518.3 127 491 128C463.7 129 436.3 169 409 193C381.7 217 354.3 225 327 216C299.7 207 272.3 181 245.2 171C218 161 191 167 163.8 176C136.7 185 109.3 197 82 199C54.7 201 27.3 193 13.7 189L0 185Z" fill="#0a3961"></path><path d="M0 451L13.7 446C27.3 441 54.7 431 82 430C109.3 429 136.7 437 163.8 432C191 427 218 409 245.2 411C272.3 413 299.7 435 327 456C354.3 477 381.7 497 409 489C436.3 481 463.7 445 491 442C518.3 439 545.7 469 573 471C600.3 473 627.7 447 654.8 430C682 413 709 405 736.2 408C763.3 411 790.7 425 818 428C845.3 431 872.7 423 886.3 419L900 415L900 323L886.3 325C872.7 327 845.3 331 818 324C790.7 317 763.3 299 736.2 269C709 239 682 197 654.8 206C627.7 215 600.3 275 573 279C545.7 283 518.3 231 491 225C463.7 219 436.3 259 409 278C381.7 297 354.3 295 327 294C299.7 293 272.3 293 245.2 290C218 287 191 281 163.8 281C136.7 281 109.3 287 82 291C54.7 295 27.3 297 13.7 298L0 299Z" fill="#1d5587"></path><path d="M0 511L13.7 505C27.3 499 54.7 487 82 486C109.3 485 136.7 495 163.8 497C191 499 218 493 245.2 496C272.3 499 299.7 511 327 523C354.3 535 381.7 547 409 543C436.3 539 463.7 519 491 519C518.3 519 545.7 539 573 538C600.3 537 627.7 515 654.8 504C682 493 709 493 736.2 490C763.3 487 790.7 481 818 478C845.3 475 872.7 475 886.3 475L900 475L900 413L886.3 417C872.7 421 845.3 429 818 426C790.7 423 763.3 409 736.2 406C709 403 682 411 654.8 428C627.7 445 600.3 471 573 469C545.7 467 518.3 437 491 440C463.7 443 436.3 479 409 487C381.7 495 354.3 475 327 454C299.7 433 272.3 411 245.2 409C218 407 191 425 163.8 430C136.7 435 109.3 427 82 428C54.7 429 27.3 439 13.7 444L0 449Z" fill="#0a3961"></path><path d="M0 601L13.7 601C27.3 601 54.7 601 82 601C109.3 601 136.7 601 163.8 601C191 601 218 601 245.2 601C272.3 601 299.7 601 327 601C354.3 601 381.7 601 409 601C436.3 601 463.7 601 491 601C518.3 601 545.7 601 573 601C600.3 601 627.7 601 654.8 601C682 601 709 601 736.2 601C763.3 601 790.7 601 818 601C845.3 601 872.7 601 886.3 601L900 601L900 473L886.3 473C872.7 473 845.3 473 818 476C790.7 479 763.3 485 736.2 488C709 491 682 491 654.8 502C627.7 513 600.3 535 573 536C545.7 537 518.3 517 491 517C463.7 517 436.3 537 409 541C381.7 545 354.3 533 327 521C299.7 509 272.3 497 245.2 494C218 491 191 497 163.8 495C136.7 493 109.3 483 82 484C54.7 485 27.3 497 13.7 503L0 509Z" fill="#04253e"></path></svg>