<svg xmlns="http://www.w3.org/2000/svg" xmlns:xlink="http://www.w3.org/1999/xlink" xmlns:svgjs="http://svgjs.com/svgjs" width="512" height="512" x="0" y="0" viewBox="0 0 608.31 608.31" style="enable-background:new 0 0 512 512" xml:space="preserve" class=""><circle r="304.155" cx="304.155" cy="304.155" fill="#8d98c8"></circle><g transform="matrix(0.7,0,0,0.7,91.24631652832034,91.24980010986329)"><path d="M20.321 400.428h298.135l-83.02 83.03a40.642 40.642 0 1 0 57.467 57.467l86.21-86.21a20.25 20.25 0 0 0 5.192-19.559l17.73-17.73a304.52 304.52 0 0 0 90.732 48.658 30.42 30.42 0 0 0 38.436-19.782l75.735-238.575a30.615 30.615 0 0 0-38.355-38.284L467.376 201.57V75.297c0-11.223-9.098-20.321-20.321-20.321H20.321C9.098 54.976 0 64.074 0 75.297v304.81c0 11.223 9.098 20.321 20.321 20.321zm0-40.641h327.874a276.58 276.58 0 0 0 10.739 14.539l-5.781 5.781H20.321zm0-100.588a50.963 50.963 0 0 1 39.625 39.625H20.321zm213.367 59.946a131.005 131.005 0 0 0 79.627-26.803 310.887 310.887 0 0 0 21.977 47.124H20.321v-20.321zm95.07-73.429a29.465 29.465 0 0 0-19.457 23.511 110.748 110.748 0 0 1-75.613 29.597c-50.971.066-95.546-34.321-108.421-83.639s9.204-101.105 53.702-125.963 100.173-16.505 135.417 20.317 41.153 92.809 14.372 136.177zm43.171 173.082-14.367-14.367 79.037-79.037a10.385 10.385 0 0 1 14.367 0c3.96 3.966 3.96 10.39 0 14.357zm-93.394 107.76c-8.039 7.679-20.695 7.679-28.733 0-7.933-7.935-7.933-20.798 0-28.733l86.21-86.221 28.744 28.744zm296.154-337.739a10.293 10.293 0 0 1 12.863 12.802l-75.725 238.544a10.165 10.165 0 0 1-5.08 6.005 9.888 9.888 0 0 1-7.63.62 284.07 284.07 0 0 1-82.624-43.822l48.851-48.831a30.482 30.482 0 0 0 0-43.11c-12.057-11.522-31.043-11.522-43.1 0l-48.851 48.841a284.35 284.35 0 0 1-43.822-82.624 9.843 9.843 0 0 1 .62-7.63 10.16 10.16 0 0 1 6.025-5.08zm-127.634-73.897a50.963 50.963 0 0 1-39.625-39.625h39.625zm-60.149-39.625c4.529 31.152 28.998 55.62 60.149 60.149v72.575l-91.087 28.916c24.301-59.396 2.267-127.66-52.173-161.641h83.111zM101.603 187.061a131.974 131.974 0 0 0 61.978 111.764H80.47c-4.529-31.152-28.998-55.62-60.149-60.149v-103.23c31.152-4.529 55.62-28.998 60.149-60.149h83.112a131.974 131.974 0 0 0-61.979 111.764zM59.946 75.297a50.963 50.963 0 0 1-39.625 39.625V75.297z" fill="#ffffff" data-original="#000000"></path><path d="M274.329 156.58c0 5.611 4.549 10.16 10.16 10.16s10.16-4.549 10.16-10.16c0-20.473-21.631-36.913-50.802-40.052v-10.75c0-5.611-4.549-10.16-10.16-10.16s-10.16 4.549-10.16 10.16v10.75c-29.17 3.14-50.802 19.579-50.802 40.052s21.631 36.913 50.802 40.052v40.448c-17.953-2.54-30.481-11.41-30.481-19.538 0-5.611-4.549-10.16-10.16-10.16s-10.16 4.549-10.16 10.16c0 20.473 21.631 36.913 50.802 40.052v10.75c0 5.611 4.549 10.16 10.16 10.16s10.16-4.549 10.16-10.16v-10.75c29.17-3.14 50.802-19.579 50.802-40.052s-21.631-36.913-50.802-40.052v-40.448c17.953 2.54 30.481 11.41 30.481 19.538zm-81.283 0c0-8.128 12.528-16.998 30.481-19.538v39.077c-17.953-2.541-30.481-11.411-30.481-19.539zm81.283 60.962c0 8.128-12.528 16.998-30.481 19.538v-39.077c17.953 2.541 30.481 11.411 30.481 19.539z" fill="#ffffff" data-original="#000000"></path><g fill-rule="evenodd" clip-rule="evenodd"><path d="M71.122 176.9h-20.32c-5.611 0-10.16 4.549-10.16 10.16s4.549 10.16 10.16 10.16h20.321c5.611 0 10.16-4.549 10.16-10.16s-4.549-10.16-10.161-10.16zM396.253 197.221h20.321c5.611 0 10.16-4.549 10.16-10.16s-4.549-10.16-10.16-10.16h-20.321c-5.611 0-10.16 4.549-10.16 10.16s4.549 10.16 10.16 10.16z" fill="#ffffff" data-original="#000000"></path></g></g></svg>